<svg width="48" height="48" viewBox="0 0 48 48" fill="none" xmlns="http://www.w3.org/2000/svg">
<path d="M22.5 9V21C22.5 21.3978 22.342 21.7794 22.0607 22.0607C21.7794 22.342 21.3978 22.5 21 22.5H9C8.60218 22.5 8.22064 22.342 7.93934 22.0607C7.65804 21.7794 7.5 21.3978 7.5 21V9C7.5 8.60218 7.65804 8.22064 7.93934 7.93934C8.22064 7.65804 8.60218 7.5 9 7.5H21C21.3978 7.5 21.7794 7.65804 22.0607 7.93934C22.342 8.22064 22.5 8.60218 22.5 9ZM39 7.5H27C26.6022 7.5 26.2206 7.65804 25.9393 7.93934C25.658 8.22064 25.5 8.60218 25.5 9V21C25.5 21.3978 25.658 21.7794 25.9393 22.0607C26.2206 22.342 26.6022 22.5 27 22.5H39C39.3978 22.5 39.7794 22.342 40.0607 22.0607C40.342 21.7794 40.5 21.3978 40.5 21V9C40.5 8.60218 40.342 8.22064 40.0607 7.93934C39.7794 7.65804 39.3978 7.5 39 7.5ZM21 25.5H9C8.60218 25.5 8.22064 25.658 7.93934 25.9393C7.65804 26.2206 7.5 26.6022 7.5 27V39C7.5 39.3978 7.65804 39.7794 7.93934 40.0607C8.22064 40.342 8.60218 40.5 9 40.5H21C21.3978 40.5 21.7794 40.342 22.0607 40.0607C22.342 39.7794 22.5 39.3978 22.5 39V27C22.5 26.6022 22.342 26.2206 22.0607 25.9393C21.7794 25.658 21.3978 25.5 21 25.5ZM39 25.5H27C26.6022 25.5 26.2206 25.658 25.9393 25.9393C25.658 26.2206 25.5 26.6022 25.5 27V39C25.5 39.3978 25.658 39.7794 25.9393 40.0607C26.2206 40.342 26.6022 40.5 27 40.5H39C39.3978 40.5 39.7794 40.342 40.0607 40.0607C40.342 39.7794 40.5 39.3978 40.5 39V27C40.5 26.6022 40.342 26.2206 40.0607 25.9393C39.7794 25.658 39.3978 25.5 39 25.5Z" fill="#BDBDBD"/>
</svg>
