<svg width="48" height="48" viewBox="0 0 48 48" fill="none" xmlns="http://www.w3.org/2000/svg">
<path d="M24.0234 18.3094C22.6219 18.3094 21.3094 18.8531 20.3156 19.8469C19.3266 20.8406 18.7781 22.1531 18.7781 23.5547C18.7781 24.9563 19.3266 26.2688 20.3156 27.2625C21.3094 28.2516 22.6219 28.8 24.0234 28.8C25.425 28.8 26.7375 28.2516 27.7312 27.2625C28.7203 26.2688 29.2687 24.9563 29.2687 23.5547C29.2687 22.1531 28.7203 20.8406 27.7312 19.8469C27.2459 19.3578 26.6681 18.97 26.0316 18.706C25.3951 18.4421 24.7125 18.3073 24.0234 18.3094V18.3094ZM43.35 29.3484L40.2844 26.7281C40.4297 25.8375 40.5047 24.9281 40.5047 24.0234C40.5047 23.1188 40.4297 22.2047 40.2844 21.3188L43.35 18.6984C43.5816 18.5002 43.7473 18.2361 43.8252 17.9414C43.9031 17.6467 43.8894 17.3352 43.7859 17.0484L43.7437 16.9266C42.9001 14.5673 41.6359 12.3804 40.0125 10.4719L39.9281 10.3734C39.731 10.1417 39.4683 9.97504 39.1745 9.89554C38.8808 9.81605 38.5699 9.82741 38.2828 9.92813L34.4766 11.2828C33.0703 10.1297 31.5047 9.22032 29.8078 8.58751L29.0719 4.60782C29.0163 4.30802 28.8709 4.03221 28.6549 3.81703C28.4389 3.60185 28.1625 3.45749 27.8625 3.40313L27.7359 3.37969C25.2984 2.93907 22.7297 2.93907 20.2922 3.37969L20.1656 3.40313C19.8656 3.45749 19.5892 3.60185 19.3732 3.81703C19.1572 4.03221 19.0118 4.30802 18.9562 4.60782L18.2156 8.60626C16.5348 9.24411 14.969 10.1513 13.5797 11.2922L9.74531 9.92813C9.45828 9.82661 9.14714 9.81484 8.85326 9.89438C8.55937 9.97392 8.29665 10.141 8.1 10.3734L8.01562 10.4719C6.39512 12.3825 5.13127 14.5688 4.28437 16.9266L4.24219 17.0484C4.03125 17.6344 4.20469 18.2906 4.67812 18.6984L7.78125 21.3469C7.63594 22.2281 7.56562 23.1281 7.56562 24.0188C7.56562 24.9188 7.63594 25.8188 7.78125 26.6906L4.6875 29.3391C4.45592 29.5373 4.29017 29.8014 4.2123 30.0961C4.13443 30.3908 4.14812 30.7023 4.25156 30.9891L4.29375 31.1109C5.14219 33.4688 6.39375 35.6484 8.025 37.5656L8.10937 37.6641C8.3065 37.8959 8.56924 38.0625 8.86295 38.142C9.15666 38.2215 9.46756 38.2101 9.75469 38.1094L13.5891 36.7453C14.9859 37.8938 16.5422 38.8031 18.225 39.4313L18.9656 43.4297C19.0211 43.7295 19.1666 44.0053 19.3826 44.2205C19.5986 44.4357 19.875 44.58 20.175 44.6344L20.3016 44.6578C22.763 45.1008 25.2838 45.1008 27.7453 44.6578L27.8719 44.6344C28.1719 44.58 28.4483 44.4357 28.6643 44.2205C28.8803 44.0053 29.0257 43.7295 29.0812 43.4297L29.8172 39.45C31.5141 38.8125 33.0797 37.9078 34.4859 36.7547L38.2922 38.1094C38.5792 38.2109 38.8904 38.2227 39.1842 38.1431C39.4781 38.0636 39.7408 37.8965 39.9375 37.6641L40.0219 37.5656C41.6531 35.6391 42.9047 33.4688 43.7531 31.1109L43.7953 30.9891C43.9969 30.4078 43.8234 29.7563 43.35 29.3484ZM24.0234 31.7953C19.4719 31.7953 15.7828 28.1063 15.7828 23.5547C15.7828 19.0031 19.4719 15.3141 24.0234 15.3141C28.575 15.3141 32.2641 19.0031 32.2641 23.5547C32.2641 28.1063 28.575 31.7953 24.0234 31.7953Z" fill="#BDBDBD"/>
</svg>
