<svg width="48" height="48" viewBox="0 0 48 48" fill="none" xmlns="http://www.w3.org/2000/svg">
<path d="M28.712 5.19001C28.7542 5.13693 28.8067 5.09299 28.8664 5.06086C28.9261 5.02872 28.9917 5.00906 29.0593 5.00308C29.1268 4.99709 29.1948 5.0049 29.2593 5.02604C29.3237 5.04717 29.3831 5.08118 29.434 5.12601L31.276 6.75001L25.478 14H29.32L33.532 8.73601L36.836 11.65C36.9337 11.7363 36.9938 11.8574 37.0035 11.9874C37.0132 12.1174 36.9718 12.2461 36.888 12.346L35.508 14H39.396C39.8776 13.295 40.0849 12.4382 39.9788 11.591C39.8727 10.7438 39.4606 9.96454 38.82 9.40001L31.42 2.87401C31.063 2.55961 30.6457 2.32129 30.1935 2.17359C29.7413 2.02589 29.2638 1.97192 28.79 2.01497C28.3163 2.05802 27.8563 2.19719 27.4382 2.42398C27.02 2.65077 26.6525 2.96041 26.358 3.33401L17.952 14H21.772L28.712 5.19001V5.19001ZM10.5 13C10.1022 13 9.72064 13.158 9.43934 13.4393C9.15804 13.7207 9 14.1022 9 14.5C9 14.8978 9.15804 15.2794 9.43934 15.5607C9.72064 15.842 10.1022 16 10.5 16H36.5C38.2239 16 39.8772 16.6848 41.0962 17.9038C42.3152 19.1228 43 20.7761 43 22.5V35.5C43 37.2239 42.3152 38.8772 41.0962 40.0962C39.8772 41.3152 38.2239 42 36.5 42H12.5C10.7761 42 9.12279 41.3152 7.90381 40.0962C6.68482 38.8772 6 37.2239 6 35.5V14.5C6 13.3065 6.47411 12.1619 7.31802 11.318C8.16193 10.4741 9.30653 10 10.5 10H19.14L16.756 13H10.5ZM31 29.5C31 30.328 31.672 31 32.5 31H36.5C36.8978 31 37.2794 30.842 37.5607 30.5607C37.842 30.2794 38 29.8978 38 29.5C38 29.1022 37.842 28.7207 37.5607 28.4393C37.2794 28.158 36.8978 28 36.5 28H32.5C32.1022 28 31.7206 28.158 31.4393 28.4393C31.158 28.7207 31 29.1022 31 29.5V29.5Z" fill="#BDBDBD"/>
</svg>
